<svg width="20" height="20" viewBox="0 0 20 20" fill="none" xmlns="http://www.w3.org/2000/svg">
<path d="M11.4286 2C13.401 2 15 3.49238 15 5.33333V13.3333C15 15.9107 12.7614 18 10 18C7.23858 18 5 15.9107 5 13.3333V8H6.42857V13.3333C6.42857 15.1743 8.02755 16.6667 10 16.6667C11.9724 16.6667 13.5714 15.1743 13.5714 13.3333V5.33333C13.5714 4.22876 12.612 3.33333 11.4286 3.33333C10.2451 3.33333 9.28571 4.22876 9.28571 5.33333V13.3333C9.28571 13.7015 9.60551 14 10 14C10.3945 14 10.7143 13.7015 10.7143 13.3333V6H12.1429V13.3333C12.1429 14.4379 11.1835 15.3333 10 15.3333C8.81653 15.3333 7.85714 14.4379 7.85714 13.3333V5.33333C7.85714 3.49238 9.45613 2 11.4286 2Z" fill="#E8E8E8"/>
</svg>
