<svg width="20" height="20" viewBox="0 0 20 20" fill="none" xmlns="http://www.w3.org/2000/svg">
<path fill-rule="evenodd" clip-rule="evenodd" d="M13.8539 2.75C13.8539 2.33579 13.5181 2 13.1039 2C12.6897 2 12.3539 2.33579 12.3539 2.75V3.27173H7.64156V2.75C7.64156 2.33579 7.30577 2 6.89156 2C6.47734 2 6.14156 2.33579 6.14156 2.75V3.27173H4.36061C3.12305 3.27173 2 4.20225 2 5.49129V15.7782C2 17.0672 3.12305 17.9978 4.36061 17.9978H15.6348C16.8724 17.9978 17.9955 17.0672 17.9955 15.7782V5.49129C17.9955 4.20225 16.8724 3.27173 15.6348 3.27173H13.8539V2.75ZM6.14156 5.70967V4.77173H4.36061C3.81913 4.77173 3.5 5.1571 3.5 5.49129V7.91933H16.4955V5.49129C16.4955 5.1571 16.1763 4.77173 15.6348 4.77173H13.8539V5.70967C13.8539 6.12389 13.5181 6.45967 13.1039 6.45967C12.6897 6.45967 12.3539 6.12389 12.3539 5.70967V4.77173H7.64156V5.70967C7.64156 6.12389 7.30577 6.45967 6.89156 6.45967C6.47734 6.45967 6.14156 6.12389 6.14156 5.70967ZM16.4955 9.41933H3.5V15.7782C3.5 16.1124 3.81913 16.4978 4.36061 16.4978H15.6348C16.1763 16.4978 16.4955 16.1124 16.4955 15.7782V9.41933Z" fill="#E8E8E8"/>
</svg>
