<svg width="20" height="20" viewBox="0 0 20 20" fill="none" xmlns="http://www.w3.org/2000/svg">
<path fill-rule="evenodd" clip-rule="evenodd" d="M5.90204 4.90002C5.90204 4.48581 6.23783 4.15002 6.65204 4.15002H17.9C18.3142 4.15002 18.65 4.48581 18.65 4.90002C18.65 5.31424 18.3142 5.65002 17.9 5.65002H6.65204C6.23783 5.65002 5.90204 5.31424 5.90204 4.90002Z" fill="#E8E8E8"/>
<path fill-rule="evenodd" clip-rule="evenodd" d="M5.90204 10.0914C5.90204 9.67716 6.23783 9.34137 6.65204 9.34137H17.9C18.3142 9.34137 18.65 9.67716 18.65 10.0914C18.65 10.5056 18.3142 10.8414 17.9 10.8414H6.65204C6.23783 10.8414 5.90204 10.5056 5.90204 10.0914Z" fill="#E8E8E8"/>
<path fill-rule="evenodd" clip-rule="evenodd" d="M5.90204 15.2827C5.90204 14.8685 6.23783 14.5327 6.65204 14.5327H17.9C18.3142 14.5327 18.65 14.8685 18.65 15.2827C18.65 15.6969 18.3142 16.0327 17.9 16.0327H6.65204C6.23783 16.0327 5.90204 15.6969 5.90204 15.2827Z" fill="#E8E8E8"/>
<path d="M2.75 6.5H1.875V3.875H1V3H2.75V6.5Z" fill="#E8E8E8"/>
<path d="M2.75 14.375H1V13.5H3.625V17H1V16.125H2.75V15.8625L2.3125 15.6875V14.8125L2.75 14.6375V14.375Z" fill="#E8E8E8"/>
<path d="M2.75 9.125H1V8.25H3.625V9.125L1.875 10.875H3.625V11.75H1V10.875L2.75 9.125Z" fill="#E8E8E8"/>
</svg>
