<svg width="20" height="20" viewBox="0 0 20 20" fill="none" xmlns="http://www.w3.org/2000/svg">
<path fill-rule="evenodd" clip-rule="evenodd" d="M10 2.34998C10.2855 2.34998 10.5462 2.51203 10.6726 2.76801L12.7385 6.95333L17.3585 7.62861C17.6409 7.66989 17.8754 7.8679 17.9635 8.1394C18.0515 8.41091 17.9778 8.70885 17.7733 8.90799L14.4309 12.1635L15.2197 16.7627C15.268 17.0441 15.1523 17.3285 14.9213 17.4963C14.6903 17.6641 14.3841 17.6862 14.1314 17.5533L10 15.3806L5.86861 17.5533C5.61592 17.6862 5.30971 17.6641 5.07872 17.4963C4.84774 17.3285 4.73205 17.0441 4.78032 16.7627L5.56913 12.1635L2.22672 8.90799C2.02226 8.70885 1.94855 8.41091 2.03659 8.1394C2.12462 7.8679 2.35913 7.66989 2.64155 7.62861L7.26158 6.95333L9.32749 2.76801C9.45385 2.51203 9.71456 2.34998 10 2.34998ZM10 4.79442L8.4323 7.97044C8.32315 8.19158 8.11226 8.34492 7.86824 8.38059L4.36133 8.89318L6.89832 11.3642C7.07523 11.5365 7.15597 11.7849 7.11423 12.0283L6.51566 15.5182L9.65093 13.8694C9.86947 13.7545 10.1306 13.7545 10.3491 13.8694L13.4844 15.5182L12.8858 12.0283C12.8441 11.7849 12.9248 11.5365 13.1017 11.3642L15.6387 8.89318L12.1318 8.38059C11.8878 8.34492 11.6769 8.19158 11.5677 7.97044L10 4.79442Z" fill="#E8E8E8"/>
</svg>
